<?xml version="1.0" encoding="UTF-8"?>
<svg id="Layer_1" data-name="Layer 1" xmlns="http://www.w3.org/2000/svg" version="1.1" viewBox="0 0 612 158.4">
  <defs>
    <style>
      .cls-1 {
        font-family: Chalkduster, Chalkduster;
        font-size: 35px;
        letter-spacing: .5em;
      }

      .cls-1, .cls-2 {
        fill: #f0f4f6;
      }

      .cls-3 {
        fill: none;
      }

      .cls-3, .cls-4 {
        stroke-width: 0px;
      }

      .cls-2 {
        font-family: ChalkboardSE-Regular, 'Chalkboard SE';
        font-size: 74.7px;
      }

      .cls-2, .cls-5 {
        isolation: isolate;
      }

      .cls-4 {
        fill: #bc642d;
      }
    </style>
  </defs>
  <path class="cls-4" d="M225.9,1.2c2.2.4,52.9,9.1,63.9,38.7,2.7,7.4,3.2,16.5,10.9,30.3,8.2,14.4,13.9,15.3,16.1,22.6,5.7,18.8-21.7,51-54.7,61.7-39.6,12.8-77.4-8.6-99.7-21.3-25.1-14.2-54.8-31.1-57.1-55.7C101.6,38.3,168.8-8,226,1.2h-.1Z"/>
  <path class="cls-3" d="M351,70.4v-3.6c3.2,0,6.3-.3,9.3,0,2.9.3,5.3,3.7,5.2,6.8-.1,3.1-2.6,5.9-5.8,6.2-2.8.2-5.5,0-8.6,0v-9.5h-.1Z"/>
  <g class="cls-5">
    <g class="cls-5">
      <text class="cls-2" transform="translate(118.7 94.6)"><tspan x="0" y="0">FEDORUK</tspan></text>
    </g>
  </g>
  <text class="cls-1" transform="translate(202.5 142.4)"><tspan x="0" y="0">CARDS</tspan></text>
</svg>