<?xml version="1.0" encoding="UTF-8"?>
<svg id="Layer_1" data-name="Layer 1" xmlns="http://www.w3.org/2000/svg" version="1.1" viewBox="0 0 1077 785.3">
  <defs>
    <style>
      .cls-1 {
        fill: #d7fcd8;
      }

      .cls-1, .cls-2, .cls-3, .cls-4, .cls-5, .cls-6, .cls-7, .cls-8, .cls-9, .cls-10, .cls-11, .cls-12, .cls-13 {
        stroke-width: 0px;
      }

      .cls-2 {
        fill: #c0e1c1;
      }

      .cls-3 {
        fill: #efcd53;
      }

      .cls-4 {
        fill: #e0c956;
      }

      .cls-4, .cls-6, .cls-10 {
        opacity: .8;
      }

      .cls-5 {
        fill: #e1e1e1;
      }

      .cls-6, .cls-13 {
        fill: #fae377;
      }

      .cls-7 {
        fill: #414141;
      }

      .cls-8 {
        fill: #413b1f;
      }

      .cls-9 {
        fill: #374138;
      }

      .cls-10 {
        fill: #e1cc6d;
      }

      .cls-11 {
        fill: #fce478;
      }

      .cls-12 {
        fill: #fcfcfc;
      }
    </style>
  </defs>
  <path class="cls-8" d="M542.9,782.9c-3.7,1.6-7.2,1-11-.4-39.2-14.9-78.5-29.7-117.9-44.3-3.1-1.2-4.3-2.5-4.2-6,.2-17.8,0-35.6.2-53.5,0-3.5-.9-5.2-4.4-6.4-15.7-5.6-31.3-11.6-47-17.5.4-1.9,1.7-2.4,2.7-3.3,6.8-6.1,13.6-12.2,20.6-18.2,9.7-8.4,18-18.9,29.3-24.7,11.1-5.7,24-7.7,36.1-11.3,28.8-8.5,57.7-17,86.5-25.6,2.8-.8,5.4-.9,8.2,0,39.8,11.9,79.6,23.7,119.5,35.5,2.9.9,5.5,2.1,7.8,4.2,15,13.4,30.2,26.7,45.3,40.1,1,.9,2,1.7,3.8,3-13.6,5.1-26.2,9.9-38.8,14.7-4.3,1.6-10,2.3-12.5,5.5-2.6,3.2-.7,8.9-.8,13.6-.3,16.3.5,32.6-.4,48.9-1.6.5-3.2.8-4.7,1.4-17.7,6.6-35.4,13.2-53,19.9-21.7,8.2-43.3,16.5-65,24.7ZM428.9,611.4c.4.2.8.5,1.3.7,35.1,12.1,70.2,24.1,105.2,36.2,2.5.9,4.5.3,6.6-.7,37.6-12.9,75.2-25.7,113.5-38.8-1.2-.5-1.5-.7-1.8-.8-37.7-11.2-75.4-22.4-113.1-33.7-2.2-.6-4.2-.3-6.3.3-25.9,7.8-51.8,15.4-77.8,23.1-11.8,3.5-23.5,7-35.3,10.5,0,.3,0,.6,0,.9,2.5.7,5,1.5,7.6,2.2ZM417,676.9c-2.3-1.4-4.1-2.6-4.1,1.8.1,17.6,0,35.2,0,52.8,0,2.1.4,3.6,2.9,3.6.3.2.5.5.8.6,38.3,14.4,76.6,28.6,114.8,43.1,4.1,1.5,5,.9,5-3.4-.1-38.7,0-77.3-.1-116,0-1.4.5-2.9-.8-4.4-1.6,1.4-3,2.7-4.5,4.1-11.8,11.3-24.2,22-35.1,34.1-7.2,8-13.3,8.7-22.9,4.6-18.3-7.8-37.3-14.1-56-21ZM662.9,675.2c-1.8.6-2.9,1-3.9,1.4-21.6,8.1-43.3,16.2-64.8,24.4-3,1.2-5,.9-7.4-1.5-14.5-14.2-29.2-28.3-43.8-42.3-.8-.8-1.4-2.3-3.5-1.9v25.8c0,31.6,0,63.3,0,94.9,0,3.8.7,4.6,4.4,3.1,8-3.3,16.1-6.2,24.2-9.2,30.3-11.4,60.7-22.7,91-34.1,1.9-.7,4.1-.9,4-4.1-.1-18.6,0-37.3,0-56.5ZM541.3,651.4c16.3,15.7,31.9,30.6,47.4,45.7,2.1,2,3.8,1.2,5.8.4,21.6-8.1,43.2-16.2,64.8-24.3,17.3-6.5,34.7-13,52.2-19.5-.4-.8-.6-1.3-.9-1.6-15.3-13.6-30.7-27.1-45.9-40.8-2.1-1.9-3.9-1-5.9-.3-19.3,6.7-38.6,13.3-57.9,19.9-19.6,6.7-39.2,13.5-59.6,20.4ZM363.9,653.3c1.4.6,2,.8,2.6,1,38.5,14.5,77.1,28.9,115.6,43.5,3,1.1,4.5,0,6.4-1.9,14.5-14,29-27.9,43.5-41.9.8-.8,2-1.3,1.9-2.7-.2-.1-.3-.2-.4-.3-39.2-13.5-78.4-27.1-117.7-40.6-1.5-.5-2.8-.6-4.1.6-15.7,13.9-31.4,27.8-47.8,42.3Z"/>
  <path class="cls-4" d="M542.9,782.9c21.6-8.2,43.3-16.5,65-24.7,17.7-6.7,35.4-13.3,53-19.9,1.5-.6,3.2-.9,4.7-1.4,2.4,2.4,1.2,3.5-1.4,4.5-13.3,5-26.6,10.2-39.9,15.3-15.5,5.8-31,11.6-46.5,17.3-10.1,3.8-20.2,7.5-30.3,11.2-2.5.9-4.7,1.5-4.7-2.4Z"/>
  <path class="cls-9" d="M610.9,456.2c1.5-1.2,2.8-2.8,4,.5,1.3,3.6,3,7.1,4.6,10.7,1.6,3.5,1.8,6.8-1.4,9.4-2.7,2.2-5.8,2.5-8.7.5-3.3-2.3-4.1-5.4-2.5-9.2.2-.6.2-1.3.3-1.9,0,0,0,0,0,0,.9-.2.9-.9,1-1.6,0-.1.3-.2.3-.3,0-.2-.1-.4-.2-.7,1.7-1,1.9-2.7,1.9-4.4,1.5-.6.8-1.9.9-3ZM610.2,475.2c2.1,1.7,4.3,1.5,6.3,0,2.2-1.7,2-4.1,1.2-6.3-.7-2.1-1.5-4.4-3.1-6.1-.2-1.3-.2-2.6-1.7-3.7-1.5,3.4-3,6.8-4.4,10.1-1,2.4-.7,4.5,1.6,6.1Z"/>
  <path class="cls-9" d="M599.3,439.2c-5.7,2.5-10.2,4.6-14.8,6.4-3.3,1.3-6.5,1.2-8.9-1.8-2.2-2.8-2.4-5.9-.3-8.7,2.4-3.2,5.6-3.8,9.3-2.2,4.5,2,9,3.9,14.7,6.3ZM583.1,434.4c-2.8-.7-5.3-.3-6.7,2.6-1.2,2.5-.8,4.8,1.8,6.3,6.1,2.6,9.7-2.3,14.4-4.7-3.2-1.4-6.3-2.8-9.5-4.2Z"/>
  <path class="cls-3" d="M608.1,463.6c0,.2.2.4.2.7,0,0-.2.2-.3.3-1.4-.1-1.9.3-1,1.6,0,0,0,0,0,0-1.6-2.1-3.9-.3-5.8-1-2.8-5.4-8.2-8.5-11.9-13.1.7-1.1,1.5-2.2,2.2-3.3,3.6,3.5,7.1,7,10.7,10.5,1.1,1.1,2.1,3,4,1.1,0,1.4-.5,3.1,1.7,3.3Z"/>
  <path class="cls-9" d="M589.4,452.1c3.7,4.7,9.1,7.7,11.9,13.1-.4.5-.8.9-1.3,1.4-2,1.2-2.6-.9-3.6-1.7-3.4-3.1-6.7-6.4-10-9.7-.9-1-1.5-2-.2-3.2,1.2-1.1,2.1-1.1,3.1,0Z"/>
  <path class="cls-7" d="M636.7,583.4c-9.1-2.7-18.2-5.4-27.3-8.1.2-.6.3-1.1.5-1.7,9.2,2.1,18.2,5.1,27.2,7.9-.1.6-.3,1.2-.4,1.8Z"/>
  <path class="cls-7" d="M634.5,537.7c-8.3,4.5-16.7,9-25,13.5-.3-.5-.5-.9-.8-1.4,7.8-5.4,16.6-9.2,24.8-14,.3.6.7,1.2,1,1.8Z"/>
  <path class="cls-7" d="M470.7,577.2c-9.1,2.7-18.2,5.4-28.1,8.4,2.4-3.2,22.3-9.6,28.1-8.4Z"/>
  <path class="cls-7" d="M487.1,544.1l-8.2-27.4c.6-.2,1.3-.4,1.9-.6,2.7,9.1,5.5,18.3,8.2,27.4-.6.2-1.3.4-1.9.6Z"/>
  <path class="cls-7" d="M601,514.6c-2.7,9.2-5.4,18.3-8.1,27.5-.5-.1-1-.3-1.6-.4,1.7-9.4,5.3-18.3,7.7-27.5.7.2,1.3.3,2,.5Z"/>
  <path class="cls-7" d="M446.6,537.9c8.3,4.5,16.6,9,24.9,13.5-.3.6-.6,1.2-.9,1.8l-25-13.5c.3-.6.7-1.2,1-1.8Z"/>
  <path class="cls-3" d="M610.9,456.2c-.1,1,.5,2.3-.9,3-.9-.1-1.9-.2-2.8-.4-3.9-4-7.9-8-11.8-12.1.8-1.1,1.9-1.8,3.3-2,4,2.5,6,7.3,10.7,9.1.5.8,1,1.5,1.5,2.3Z"/>
  <path class="cls-3" d="M586.5,455.2c3.3,3.2,6.6,6.5,10,9.7.9.9,1.6,2.9,3.6,1.7.2,3.4-1.2,4-5.3,2.2-3.1-3.2-6.3-6.4-9.4-9.5.4-1.3.7-2.7,1.1-4Z"/>
  <path class="cls-9" d="M595.4,446.8c3.9,4,7.9,8,11.8,12.1-.3.5-.5,1-.8,1.5-1.9,1.9-2.9,0-4-1.1-3.6-3.5-7.1-7-10.7-10.5-1.2-1.6.2-2.3,1.1-3,1.4-1.1,1.8.5,2.7,1.1Z"/>
  <path class="cls-9" d="M610.9,441.2c.7,1.7,2,.3,2.9.4,2.7.3,4.3,1.7,4,4.5-.2,2.4-1.9,3.4-4.2,3.2-2.6-.2-3.7-1.8-3.7-4.3,0-1,1.7-2,0-2.9h0c.4,0,.8.1,1.1.1,0-.4,0-.8,0-1.1h0Z"/>
  <path class="cls-9" d="M610,442.1c-.6,0-1.2,0-1.9.1-3,.5-4.9-.6-5.2-3.7-.2-2.3,1.4-3.8,3.6-3.9,3-.1,4.4,1.7,4.4,4.7,0,.6,0,1.3,0,1.9,0,0,0,0,0,0-.9-.2-1.3.2-1.1,1.1h0Z"/>
  <path class="cls-7" d="M585.4,459.2c3.1,3.2,6.3,6.4,9.4,9.5-5.8.5-10.7-3-11.4-8.4-.3-2.1.3-2.5,2-1.2Z"/>
  <path class="cls-9" d="M609.4,453.9c-4.6-1.8-6.6-6.6-10.7-9.1-1.5-2.3.5-1.7,1.4-1.6,5,.4,8.3,4.3,9.3,10.7Z"/>
  <path class="cls-7" d="M528.9,531.4c-2.7,2-5.6,2.2-8,4.7-.4-3.7.4-6.2,2.2-9-.6,5.1,3.4,3.3,5.8,4.3Z"/>
  <path class="cls-7" d="M549.4,537.9c1.9,3.1,2.7,5.7,1,9.4-1.2-3.4-2-5.9-1-9.4Z"/>
  <path class="cls-7" d="M533.2,496.1c-.3,4.1-1.8,6.2-4.6,9.1.3-4.2,1.7-6.4,4.6-9.1Z"/>
  <path class="cls-7" d="M564.1,472.8c2.2-1.9,4.7-3,8.6-2.4-3.1,2.3-5.7,2.7-8.6,2.4Z"/>
  <path class="cls-7" d="M506.4,576.5c-1.8-2.4-2.3-4.4-2.6-6.5,0-.7-.7-1.7.7-1.9.7,0,1.4.4,1.3,1.1-.2,2.2,2,4.1.6,7.3Z"/>
  <path class="cls-7" d="M536.7,529.5c2.8,0,5.5.2,7.1,3.6-2.5-.7-5-1.5-7.5-2.2.1-.5.3-.9.4-1.4Z"/>
  <path class="cls-7" d="M525.1,519.6c-1.6-2.8-.4-5.2,1.1-7.6,1.4,2.7-.6,5.1-1.1,7.6Z"/>
  <path class="cls-7" d="M505.5,552.3c.6,2.8.3,5.4-1.3,8.5-1.8-3.7,0-6.1,1.3-8.5Z"/>
  <path class="cls-7" d="M541.3,559.3c-.4-1.1-.1-1.9.5-2,2.2-.6,2.6-3.9,5.4-3.4.2,0,.5.7.5.8-1.7,2-3.3,4.4-6.3,4.7Z"/>
  <path class="cls-7" d="M549.3,479.9c.3-.7.4-1.4.7-1.6,1.9-1.1,3.6-2.8,6-2.9.2,0,.7,1.1.6,1.1-2.2,1.4-4.1,3.5-7.3,3.4Z"/>
  <path class="cls-7" d="M521,551c-2.8-2.1-2.2-4.9-1.8-8.6,2.6,3.2,1.5,6.1,1.8,8.6Z"/>
  <path class="cls-7" d="M533.2,560.1c-3.1,1.3-5.3-.3-8.8-2.6,4.4-.6,6.4,1.5,8.8,2.6Z"/>
  <path class="cls-7" d="M509.8,545.7c-.7-1.1-.9-1.3-.8-1.4.8-2.6,2.5-4.4,4.7-5.9,0,0,1,.8.9.9-1.5,2-3,4-4.8,6.3Z"/>
  <path class="cls-7" d="M536.7,489.6c2-1.9,3.8-3.5,5.6-5.1,0,0,1.2,1.1,1.2,1.1-1.6,1.8-3.3,3.6-5,5.3,0,0-.9-.7-1.7-1.3Z"/>
  <path class="cls-10" d="M662.9,675.2c0,19.3,0,37.9,0,56.5,0,3.2-2.1,3.4-4,4.1-30.3,11.4-60.7,22.7-91,34.1-8.1,3-16.3,5.9-24.2,9.2-3.7,1.5-4.4.7-4.4-3.1.1-31.6,0-63.3,0-94.9v-25.8c2.1-.5,2.7,1,3.5,1.9,14.7,14,29.4,28.1,43.8,42.3,2.4,2.4,4.4,2.6,7.4,1.5,21.6-8.2,43.2-16.3,64.8-24.4,1.1-.4,2.2-.8,3.9-1.4ZM592,753.7c-.8-1-1.6-2-2.4-3-9.3-10.8-18.7-21.7-28-32.5-2.1-2.4-4-4.9-6.2-7.1-.9-1-1.6-3.7-3.7-1.8-1.7,1.6.7,2.4,1.3,3.6.1.3.4.5.6.8,11.2,13,22.3,26,33.5,39,.8.9,1.5,1.8,2.4,2.5,1.4,1.1,2,0,2.5-1.3ZM571.6,745.8c-.2-.4-.3-.7-.5-.9-5.7-6.7-11.5-13.4-17.2-20.1-.6-.7-1.4-.8-2.1,0-.8.7-.8,1.4-.1,2.1,5.6,6.6,11.3,13.1,16.9,19.7.6.7,1.3,1,2.1.4.4-.3.6-.8.9-1.1Z"/>
  <path class="cls-4" d="M417,676.9c18.7,6.9,37.7,13.2,56,21,9.6,4.1,15.7,3.4,22.9-4.6,10.9-12.1,23.3-22.8,35.1-34.1,1.4-1.4,2.9-2.6,4.5-4.1,1.3,1.5.8,3,.8,4.4,0,38.7,0,77.3.1,116,0,4.3-.9,5-5,3.4-38.2-14.5-76.6-28.8-114.8-43.1-.3-.1-.5-.4-.8-.6,1.9-1.6,1.1-3.7,1.1-5.6,0-17.5,0-35.1,0-52.6ZM534.3,742.2c-.8-1.1-1.1-1.6-1.4-1.9-1.4-.9-2.2.3-3,1-8.2,7-16.4,14.1-24.6,21.2-.9.8-2.6,1.6-1,3.1,1.5,1.4,2.4-.3,3.3-1,8.1-6.9,16.2-13.9,24.2-20.8.8-.6,1.7-1.1,2.5-1.5ZM515.1,766c.9,0,13.1-10.4,13.2-11.2.2-1.5-.9-2.5-1.9-1.7-4.3,3.3-8.4,6.9-12.4,10.6-1.3,1.2,0,1.9,1.1,2.3Z"/>
  <path class="cls-13" d="M541.3,651.4c20.4-7,40-13.7,59.6-20.4,19.3-6.6,38.6-13.3,57.9-19.9,2-.7,3.8-1.6,5.9.3,15.2,13.7,30.6,27.2,45.9,40.8.3.3.5.8.9,1.6-17.5,6.6-34.9,13-52.2,19.5-21.6,8.1-43.2,16.2-64.8,24.3-2,.8-3.7,1.6-5.8-.4-15.5-15.1-31.1-30-47.4-45.7ZM580.5,684.1c3.1,3.3,6.2,6.6,9.1,10,1.5,1.7,3,1.6,4.8.9,7.3-2.8,14.6-5.4,21.8-8.3.7-.3,2.9,0,2.1-1.8-.6-1.4-1.8-1.5-3.3-1-4.2,1.6-8.6,2.7-12.5,4.8-7,3.7-12.9,3.8-17.7-3.5-1.1-1.7-2.8-3-4.3-1.1Z"/>
  <path class="cls-6" d="M363.9,653.3c16.4-14.5,32.1-28.4,47.8-42.3,1.3-1.2,2.6-1.1,4.1-.6,39.2,13.6,78.4,27.1,117.7,40.6.2,0,.3.2.4.3,0,1.4-1.1,1.9-1.9,2.7-14.5,14-29,27.9-43.5,41.9-1.9,1.8-3.4,3-6.4,1.9-38.5-14.6-77-29-115.6-43.5-.6-.2-1.1-.4-2.6-1ZM375.1,651.5c3.5-3.2,6.6-5.9,9.6-8.7-7.4-.4-10,6.3-15.9,9.7,9.4,3.5,17.7,6.6,26,9.7,1.7.6,2.9.2,3.4-1.9-7.5-2.8-15-5.7-23.2-8.8ZM391.9,636c-.4-1.1-1.4-1.2-2-1-2,.6-3.8,1.9-4.4,3.9-.2.7,1.4,1.5,2.3,1,1.7-.9,3.3-2.1,4.1-3.8Z"/>
  <path class="cls-6" d="M428.9,611.4c-2.5-.7-5-1.5-7.6-2.2,0-.3,0-.6,0-.9,11.8-3.5,23.5-7,35.3-10.5,25.9-7.7,51.9-15.4,77.8-23.1,2.1-.6,4.2-1,6.3-.3,37.7,11.2,75.4,22.5,113.1,33.7.3,0,.6.3,1.8.8-38.3,13.1-75.9,26-113.5,38.8,0-12.6,0-25.3,0-37.9,0-9.6,0-19.3,0-28.9,0-2,.3-4.4-3.1-3.2-8,2.7-16.3,4.4-24.2,7.6-1.6-.4-2-3.6-3.9-2.3-1.6,1.1,1.2,1.9,1.1,3.2-.7,0-1.4,0-2,.2-24.2,7.2-48.3,14.3-72.5,21.6-2.9.9-6.3,1-8.5,3.6Z"/>
  <path class="cls-10" d="M514.7,585.3c7.8-3.2,16.2-4.9,24.2-7.6,3.4-1.1,3.1,1.2,3.1,3.2,0,9.6,0,19.3,0,28.9,0,12.6,0,25.3,0,37.9-2.1.9-4.1,1.6-6.6.7-35-12.2-70.1-24.2-105.2-36.2-.5-.2-.9-.4-1.3-.7,2.3-2.5,5.6-2.7,8.5-3.6,24.1-7.3,48.3-14.4,72.5-21.6.6-.2,1.3-.1,2-.2,1.7.3,2.1,3.7,4.1,2.3,1.5-1.1-1.2-1.9-1.3-3.1ZM533.5,605.6c1.3,2.5,2.7,4.9,6.6,5.6-1.9-3-3.6-5.1-6.6-5.6ZM527.2,599.8c-.1-3.2-2.5-4.5-5-5.6.4,2.9,2.7,4.2,5,5.6Z"/>
  <path class="cls-11" d="M417,676.9c0,17.5,0,35.1,0,52.6,0,1.9.8,4-1.1,5.6-2.5,0-2.9-1.5-2.9-3.6,0-17.6.1-35.2,0-52.8,0-4.4,1.8-3.2,4.1-1.8Z"/>
  <path class="cls-3" d="M614.6,462.7c1.6,1.7,2.4,3.9,3.1,6.1.8,2.2.9,4.6-1.2,6.3-2,1.6-4.2,1.8-6.3,0-.5-4.9,1.6-8.8,4.4-12.5Z"/>
  <path class="cls-5" d="M614.6,462.7c-2.8,3.7-5,7.6-4.4,12.5-2.3-1.6-2.7-3.6-1.6-6.1,1.4-3.3,2.9-6.7,4.4-10.1,1.5,1.1,1.5,2.4,1.7,3.7Z"/>
  <path class="cls-12" d="M606.4,460.3c.3-.5.5-1,.8-1.5.9.1,1.9.2,2.8.4,0,1.7-.3,3.4-1.9,4.4-2.2-.3-1.7-1.9-1.7-3.3Z"/>
  <path class="cls-12" d="M607,466.2c-.9-1.3-.4-1.7,1-1.6,0,.7,0,1.4-1,1.6Z"/>
  <path class="cls-3" d="M583.1,434.4c3.2,1.4,6.3,2.8,9.5,4.2-4.7,2.4-8.3,7.4-14.4,4.7-1.1-4.5.9-7.3,4.9-8.9Z"/>
  <path class="cls-2" d="M583.1,434.4c-4.1,1.6-6.1,4.4-4.9,8.9-2.6-1.6-2.9-3.9-1.8-6.3,1.3-2.8,3.8-3.3,6.7-2.6Z"/>
  <path class="cls-1" d="M609.9,442.2c-.2-.9.1-1.3,1.1-1.1,0,.4,0,.8,0,1.1-.4,0-.8,0-1.1,0Z"/>
  <path class="cls-8" d="M592,753.7c-.5,1.3-1.1,2.4-2.5,1.3-.9-.7-1.7-1.6-2.4-2.5-11.2-13-22.3-26-33.5-39-.2-.3-.5-.5-.6-.8-.6-1.2-3-2-1.3-3.6,2.1-1.9,2.7.9,3.7,1.8,2.2,2.2,4.2,4.7,6.2,7.1,9.3,10.8,18.7,21.7,28,32.5.9,1,1.6,2.1,2.4,3Z"/>
  <path class="cls-8" d="M571.6,745.8c-.3.4-.5.9-.9,1.1-.8.6-1.5.3-2.1-.4-5.6-6.6-11.3-13.1-16.9-19.7-.6-.7-.7-1.4.1-2.1.8-.7,1.5-.7,2.1,0,5.8,6.7,11.5,13.4,17.2,20.1.2.2.3.6.5.9Z"/>
  <path class="cls-8" d="M534.3,742.2c-.8.5-1.7.9-2.5,1.5-8.1,6.9-16.1,13.9-24.2,20.8-.9.8-1.8,2.4-3.3,1-1.6-1.5.1-2.4,1-3.1,8.2-7.1,16.4-14.1,24.6-21.2.8-.7,1.6-1.9,3-1,.4.3.6.8,1.4,1.9Z"/>
  <path class="cls-8" d="M515.1,766c-1-.4-2.4-1.1-1.1-2.3,4-3.7,8.1-7.2,12.4-10.6,1-.8,2.2.2,1.9,1.7-.1.8-12.4,11.1-13.2,11.2Z"/>
  <path class="cls-8" d="M580.5,684.1c1.5-1.9,3.2-.6,4.3,1.1,4.8,7.2,10.7,7.1,17.7,3.5,3.9-2.1,8.4-3.2,12.5-4.8,1.5-.6,2.8-.5,3.3,1,.8,1.9-1.4,1.5-2.1,1.8-7.2,2.9-14.6,5.5-21.8,8.3-1.9.7-3.3.9-4.8-.9-2.9-3.4-6-6.6-9.1-10Z"/>
  <path class="cls-8" d="M375.1,651.5c8.2,3.1,15.7,5.9,23.2,8.8-.6,2.1-1.7,2.5-3.4,1.9-8.3-3.1-16.7-6.2-26-9.7,5.9-3.4,8.5-10.1,15.9-9.7-3,2.7-6.1,5.5-9.6,8.7Z"/>
  <path class="cls-8" d="M391.9,636c-.8,1.8-2.4,2.9-4.1,3.8-.9.5-2.5-.3-2.3-1,.6-2,2.4-3.3,4.4-3.9.6-.2,1.6,0,2,1Z"/>
  <path class="cls-8" d="M514.7,585.3c0,1.2,2.8,2,1.3,3.1-2,1.4-2.4-2-4.1-2.3.1-1.3-2.7-2.1-1.1-3.2,1.9-1.2,2.3,1.9,3.9,2.3Z"/>
  <path class="cls-8" d="M533.5,605.6c3,.6,4.7,2.6,6.6,5.6-3.9-.8-5.2-3.2-6.6-5.6Z"/>
  <path class="cls-8" d="M527.2,599.8c-2.3-1.5-4.6-2.7-5-5.6,2.5,1.2,4.9,2.4,5,5.6Z"/>
</svg>