<?xml version="1.0" encoding="UTF-8"?>
<svg id="Layer_1" data-name="Layer 1" xmlns="http://www.w3.org/2000/svg" viewBox="0 0 257.91 189.57">
  <defs>
    <style>
      .cls-1 {
        fill: none;
      }

      .cls-1, .cls-2 {
        stroke-width: 0px;
      }

      .cls-2 {
        fill: #bc642d;
      }

      .cls-3 {
        fill: #f0f4f6;
        font-family: ChalkboardSE-Regular, 'Chalkboard SE';
        font-size: 150px;
      }

      .cls-3, .cls-4 {
        isolation: isolate;
      }
    </style>
  </defs>
  <path class="cls-2" d="M120.75,1.18c2.2.4,52.9,9.1,63.9,38.7,2.7,7.4,3.2,16.5,10.9,30.3,8.2,14.4,13.9,15.3,16.1,22.6,5.7,18.8-21.7,51-54.7,61.7-39.6,12.8-77.4-8.6-99.7-21.3C32.15,118.98,2.45,102.08.15,77.48-3.55,38.28,63.65-8.02,120.85,1.18h-.1Z"/>
  <path class="cls-1" d="M243.4,70.38v-3.6c3.2,0,6.3-.3,9.3,0,2.9.3,5.3,3.7,5.2,6.8-.1,3.1-2.6,5.9-5.8,6.2-2.8.2-5.5,0-8.6,0v-9.5h-.1v.1Z"/>
  <g class="cls-4">
    <g class="cls-4">
      <g class="cls-4">
        <text class="cls-3" transform="translate(68.66 126.58)"><tspan x="0" y="0">F</tspan></text>
      </g>
    </g>
  </g>
</svg>